<svg xmlns="http://www.w3.org/2000/svg" viewBox="0 0 512 512" role="img" aria-label="内容运营管理台">
  <rect width="512" height="512" rx="104" fill="#1f7a72"/>
  <rect x="74" y="74" width="364" height="364" rx="78" fill="#eef4ef" opacity=".16"/>
  <path fill="#fff" d="M176 316c-35 0-62-26-62-60s27-60 62-60c25 0 46 13 56 35l-31 13c-5-10-14-18-25-18-16 0-28 13-28 30s12 30 28 30c12 0 21-7 26-18l31 13c-10 22-31 35-57 35Zm160 0c-38 0-66-27-66-60s28-60 66-60 66 27 66 60-28 60-66 60Zm0-30c18 0 31-13 31-30s-13-30-31-30-31 13-31 30 13 30 31 30Z"/>
  <path fill="#bfe6dc" d="M138 365h236v28H138z"/>
</svg>
